Coordinates
version=1
nRows=8
nColumns=40
inDegrees=yes

Units are S.I. units (second, meters, Newtons, ...)
Angles are in degrees.

endheader
time	pelvis_tilt	pelvis_list	pelvis_rotation	pelvis_tx	pelvis_ty	pelvis_tz	hip_flexion_r	hip_adduction_r	hip_rotation_r	knee_angle_r	knee_angle_r_beta	ankle_angle_r	subtalar_angle_r	mtp_angle_r	hip_flexion_l	hip_adduction_l	hip_rotation_l	knee_angle_l	knee_angle_l_beta	ankle_angle_l	subtalar_angle_l	mtp_angle_l	lumbar_extension	lumbar_bending	lumbar_rotation	arm_flex_r	arm_add_r	arm_rot_r	elbow_flex_r	pro_sup_r	wrist_flex_r	wrist_dev_r	arm_flex_l	arm_add_l	arm_rot_l	elbow_flex_l	pro_sup_l	wrist_flex_l	wrist_dev_l
      0.66000000	     -0.98695053	     10.47316045	     -5.87455013	     -0.70495783	      0.94606678	      1.45247770	      7.44249595	    -25.71067293	    -13.90806969	    -55.18489682	     -0.96315815	     -9.69566821	    -11.61086394	     -4.03471607	     12.82558814	    -11.41557925	     15.49824493	    -13.97490002	     -0.24390802	      0.22895907	     10.12994821	     -0.14299747	     -0.43894001	    -11.62033284	      6.12565030	      0.48585900	    -11.19599924	    -10.30633070	     24.65939028	     89.95437384	      0.00000000	      0.00000000	     -6.32876283	     11.88161680	      9.42838260	     11.23535096	     89.95437384	      0.00000000	      0.00000000
      0.67000000	     -1.04165045	     10.41106852	     -6.14819506	     -0.69804011	      0.94675728	      1.45100496	      9.18215201	    -25.50600560	    -13.12717408	    -56.42602806	     -0.98481997	     -8.49081844	    -13.58747580	     -3.57099139	     12.13164269	    -11.51444672	     15.83399324	    -13.40951455	     -0.23404018	      0.52919884	      9.72082344	     -0.21616419	     -0.51738070	    -11.52363235	      6.00934339	      0.68751439	    -11.20641232	    -10.06594808	     24.52015276	     89.95437384	      0.00000000	      0.00000000	     -5.78261909	     11.79505432	      9.54906629	     11.81839582	     89.95437384	      0.00000000	      0.00000000
      0.68000000	     -1.39342918	     10.14983122	     -6.49369752	     -0.69160756	      0.94700518	      1.45009390	     11.47984037	    -24.89472349	    -12.18854894	    -57.80350446	     -1.00886147	     -5.29845644	    -15.13669706	     13.66221663	     11.98429570	    -11.17156097	     16.83137980	    -13.29394741	     -0.23202315	      0.59701565	      8.94965269	     -0.99512254	     -0.31150863	    -11.21644596	      6.03939606	      0.81365271	    -11.22323327	     -9.65172024	     24.45082000	     89.95437384	      0.00000000	      0.00000000	     -5.16101304	     11.71212980	      9.73125724	     12.32770987	     89.95437384	      0.00000000	      0.00000000
      0.69000000	     -1.40465130	      9.83503482	     -6.31580483	     -0.68472542	      0.94791255	      1.44811723	     12.68550939	    -24.58502035	    -12.38895849	    -58.37715285	     -1.01887353	     -4.81801548	    -15.36076565	     13.41882646	     11.33087530	    -11.05678528	     17.05789914	    -13.03688204	     -0.22753652	      0.89399975	      8.77686762	     -1.03194651	     -0.58084842	    -10.85240246	      5.51686290	      0.92755132	    -11.26791583	     -9.59243721	     24.49822104	     89.95437384	      0.00000000	      0.00000000	     -4.53463044	     11.67573515	      9.64083934	     12.79704489	     89.95437384	      0.00000000	      0.00000000
      0.70000000	     -1.41930471	      9.56515143	     -6.42499827	     -0.67774194	      0.94880539	      1.44695728	     13.96775862	    -23.96539020	    -12.01004465	    -58.73971402	     -1.02520141	     -3.45051595	    -16.51823228	     13.22032284	     10.49163414	    -10.99607058	     16.88201160	    -12.40534109	     -0.21651405	      1.23459343	      8.37031829	     -1.10597396	     -0.75236053	    -10.56245374	      5.33122258	      1.09346591	    -11.28483991	     -9.32493926	     24.26304057	     89.95437384	      0.00000000	      0.00000000	     -3.79496198	     11.64070587	      9.49523482	     13.27276360	     89.95437384	      0.00000000	      0.00000000
      0.71000000	     -1.49397236	      9.28561897	     -6.20554020	     -0.67085250	      0.94960110	      1.44517507	     15.14628555	    -23.52662411	    -12.13758584	    -58.87279984	     -1.02752420	     -2.92959017	    -16.72139061	     13.03792906	      9.90017912	    -10.89279510	     17.08855509	    -12.14559695	     -0.21198066	      1.45627622	      8.18627802	     -1.13461957	     -0.94085976	    -10.24210862	      4.76226119	      1.15424153	    -11.29354841	     -9.18401651	     24.34652137	     89.95437384	      0.00000000	      0.00000000	     -3.12918735	     11.61193710	      9.31858118	     13.82993963	     89.95437384	      0.00000000	      0.00000000
      0.72000000	     -1.49388893	      8.83926217	     -6.05970551	     -0.66416175	      0.95058641	      1.44392294	     16.12686017	    -22.65036892	    -12.04680127	    -58.70950248	     -1.02467412	     -1.65313731	    -17.33175059	     13.05082671	      9.10761909	    -10.63117345	     16.70737242	    -11.65980249	     -0.20350194	      1.61155645	      7.69523735	     -1.20658356	     -1.21671476	     -9.76960006	      4.34185666	      1.29937060	    -11.34664999	     -8.85256677	     24.23012605	     89.95437384	      0.00000000	      0.00000000	     -2.42439353	     11.65008872	      8.88557167	     14.51322360	     89.95437384	      0.00000000	      0.00000000
      0.73000000	     -1.59014945	      8.55308878	     -5.72572492	     -0.65735243	      0.95122408	      1.44211854	     17.19881661	    -22.22586038	    -12.45493350	    -58.41512762	     -1.01953631	     -1.10846806	    -17.34073361	     12.93011030	      8.61813678	    -10.51963982	     16.90336936	    -11.45910238	     -0.19999907	      1.89958903	      7.54884495	     -1.23817871	     -1.38600314	     -9.42617537	      3.75148811	      1.31145945	    -11.37673740	     -8.73732702	     24.29764950	     89.95437384	      0.00000000	      0.00000000	     -1.68756522	     11.65367969	      8.63452018	     15.10948469	     89.95437384	      0.00000000	      0.00000000
